<?xml version="1.0" encoding="UTF-8" standalone="no"?>
<svg
   xmlns:dc="http://purl.org/dc/elements/1.1/"
   xmlns:cc="http://creativecommons.org/ns#"
   xmlns:rdf="http://www.w3.org/1999/02/22-rdf-syntax-ns#"
   xmlns:svg="http://www.w3.org/2000/svg"
   xmlns="http://www.w3.org/2000/svg"
   xmlns:sodipodi="http://sodipodi.sourceforge.net/DTD/sodipodi-0.dtd"
   xmlns:inkscape="http://www.inkscape.org/namespaces/inkscape"
   width="99pt"
   height="135pt"
   viewBox="0 0 98.999999 135"
   version="1.2"
   id="svg27"
   sodipodi:docname="ubc-crest.svg"
   inkscape:version="1.0.1 (3bc2e813f5, 2020-09-07)">
  <metadata
     id="metadata33">
    <rdf:RDF>
      <cc:Work
         rdf:about="">
        <dc:format>image/svg+xml</dc:format>
        <dc:type
           rdf:resource="http://purl.org/dc/dcmitype/StillImage" />
        <dc:title></dc:title>
      </cc:Work>
    </rdf:RDF>
  </metadata>
  <defs
     id="defs31" />
  <sodipodi:namedview
     pagecolor="#ffffff"
     bordercolor="#666666"
     borderopacity="1"
     objecttolerance="10"
     gridtolerance="10"
     guidetolerance="10"
     inkscape:pageopacity="0"
     inkscape:pageshadow="2"
     inkscape:window-width="1920"
     inkscape:window-height="1016"
     id="namedview29"
     showgrid="false"
     inkscape:zoom="1.771978"
     inkscape:cx="78.349641"
     inkscape:cy="84.59977"
     inkscape:window-x="0"
     inkscape:window-y="27"
     inkscape:window-maximized="1"
     inkscape:current-layer="svg27" />
  <g
     id="surface5569"
     transform="translate(-49.667969,-37.441406)">
    <path
       style="fill:#0c1430;fill-opacity:1;fill-rule:nonzero;stroke:none"
       d="m 99.167969,87.574219 5.277341,38.289061 17.34375,-28.984374 -7.35937,31.878904 18.70312,-17.89062 -9.73828,23.62109 15.55859,-11.61328 c -7.24218,19.71094 -13.55468,30.75781 -39.785151,39.74219 C 72.933594,153.63281 66.625,142.58594 59.382812,122.875 l 15.558594,11.61328 -9.738281,-23.62109 18.699219,17.89062 -7.359375,-31.878904 17.347656,28.984374 5.277344,-38.289061"
       id="path2" />
    <path
       style="fill:#0c1430;fill-opacity:1;fill-rule:nonzero;stroke:none"
       d="m 71.6875,74.746094 c -7.949219,0 -12.695312,-4.253906 -12.695312,-11.398438 V 46.238281 h 6.589843 v 16.839844 c 0,4.152344 2.183594,6.433594 6.15625,6.433594 4.074219,0 6.234375,-2.1875 6.234375,-6.316407 V 46.238281 h 6.632813 v 16.996094 c 0,7.101563 -4.949219,11.511719 -12.917969,11.511719"
       id="path4" />
    <path
       style="fill:#0c1430;fill-opacity:1;fill-rule:nonzero;stroke:none"
       d="M 99.414062,74.273438 H 90.210938 V 46.238281 h 9.339843 c 6.828129,0 10.589849,2.652344 10.589849,7.445313 0,2.523437 -1.31641,4.464844 -3.82813,5.65625 3.36719,1.1875 5.07813,3.414062 5.07813,6.628906 0,5.359375 -4.25,8.304688 -11.976568,8.304688 m -2.835937,-4.683594 h 2.835937 c 2.562498,0 5.609378,-0.652344 5.609378,-3.777344 0,-3.222656 -3.09766,-3.90625 -5.703128,-3.90625 h -2.742187 z m 0,-12.089844 h 2.394531 c 3.207034,0 4.980474,-1.203125 4.980474,-3.382812 0,-2.144532 -1.54688,-3.191407 -4.718755,-3.191407 h -2.65625 V 57.5"
       id="path6" />
    <path
       style="fill:#0c1430;fill-opacity:1;fill-rule:nonzero;stroke:none"
       d="m 129.84766,74.746094 c -9.07422,0 -14.9336,-5.667969 -14.9336,-14.453125 0,-8.683594 6.07422,-14.523438 15.11328,-14.523438 3.35157,0 6.17188,0.660157 8.6211,2.019531 l 0.21484,0.121094 -0.98437,5.707032 -0.4336,-0.289063 C 135.03906,51.714844 132.75,50.96875 130.25,50.96875 c -5.39062,0 -8.61328,3.472656 -8.61328,9.289062 0,5.710938 3.33203,9.253907 8.70312,9.253907 2.54297,0 5.04688,-0.765625 7.65235,-2.332031 l 0.42968,-0.257813 0.92969,5.324219 -0.20703,0.121094 c -2.67578,1.53125 -5.97656,2.378906 -9.29687,2.378906"
       id="path8" />
    <path
       style="fill:#0c1430;fill-opacity:1;fill-rule:nonzero;stroke:none"
       d="m 99.167969,168.55469 c -30.96875,-8.77344 -45.75,-29.21875 -45.75,-58.36719 V 41.191406 H 144.91797 V 110.1875 c 0,29.14844 -14.78125,49.59375 -45.750001,58.36719 z m -49.5,-131.113284 v 73.214844 c 0,30.76953 16.742187,53.04687 49.5,61.78516 32.757811,-8.73829 49.500001,-31.01563 49.500001,-61.78516 V 37.441406 H 49.667969"
       id="path10" />
    <path
       style="fill:#0c1430;fill-opacity:1;fill-rule:nonzero;stroke:none"
       d="m 99.167969,84.203125 c 6.902341,0 7.835941,2.800781 13.394531,2.765625 5.53906,0.03516 6.48828,-2.765625 13.39063,-2.765625 6.90234,0 7.85156,2.800781 13.39453,2.765625 v -6.429688 c -5.54297,0.03906 -6.49219,-2.726562 -13.39453,-2.726562 -6.90235,0 -7.85157,2.765625 -13.39063,2.726562 -5.55859,0.03906 -6.49219,-2.726562 -13.394531,-2.726562 -6.902344,0 -7.835938,2.765625 -13.394531,2.726562 -5.539063,0.03906 -6.488282,-2.726562 -13.390626,-2.726562 -6.902343,0 -7.855468,2.765625 -13.394531,2.726562 v 6.429688 c 5.539063,0.03516 6.492188,-2.765625 13.394531,-2.765625 6.902344,0 7.851563,2.800781 13.390626,2.765625 5.558593,0.03516 6.492187,-2.765625 13.394531,-2.765625"
       id="path12" />
    <path
       style="fill:#0c1430;fill-opacity:1;fill-rule:nonzero;stroke:none"
       d="m 103.53906,95.816406 c 3.33203,0.796875 4.91797,2.320313 9.02344,2.292969 5.53906,0.03516 6.48828,-2.765625 13.39063,-2.765625 6.90234,0 7.85156,2.800781 13.39453,2.765625 v -6.425781 c -5.54297,0.03516 -6.49219,-2.730469 -13.39453,-2.730469 -6.90235,0 -7.85157,2.765625 -13.39063,2.730469 -4.46094,0.02734 -5.94531,-1.746094 -9.92969,-2.449219 l 0.90625,6.582031"
       id="path14" />
    <path
       style="fill:#0c1430;fill-opacity:1;fill-rule:nonzero;stroke:none"
       d="m 85.773438,98.109375 c 4.105468,0.02734 5.691406,-1.496094 9.019531,-2.292969 l 0.90625,-6.582031 c -3.980469,0.703125 -5.464844,2.476563 -9.925781,2.449219 -5.539063,0.03516 -6.488282,-2.730469 -13.390626,-2.730469 -6.902343,0 -7.855468,2.765625 -13.394531,2.730469 v 6.425781 c 5.539063,0.03516 6.492188,-2.765625 13.394531,-2.765625 6.902344,0 7.851563,2.800781 13.390626,2.765625"
       id="path16" />
    <path
       style="fill:#0c1430;fill-opacity:1;fill-rule:nonzero;stroke:none"
       d="m 105.14063,107.42969 c 1.88281,0.64453 3.33203,1.4375 5.5664,1.71875 l 3.85938,-6.44922 c -0.60157,0.082 -1.26172,0.12891 -2.00391,0.125 -3.82031,0.0234 -5.45312,-1.27344 -8.34375,-2.08594 l 0.92188,6.69141"
       id="path18" />
    <path
       style="fill:#0c1430;fill-opacity:1;fill-rule:nonzero;stroke:none"
       d="m 122.8125,106.71484 c 0.90234,-0.14062 1.92578,-0.23046 3.14063,-0.23046 6.90234,0 7.85156,2.80078 13.39453,2.76953 v -6.42969 c -5.54297,0.0352 -6.49219,-2.73047 -13.39453,-2.73047 -0.58204,0 -1.1211,0.0234 -1.625,0.0586 l -1.51563,6.5625"
       id="path20" />
    <path
       style="fill:#0c1430;fill-opacity:1;fill-rule:nonzero;stroke:none"
       d="m 75.523438,106.71484 -1.515626,-6.5625 c -0.503906,-0.0352 -1.042968,-0.0586 -1.625,-0.0586 -6.902343,0 -7.855468,2.76563 -13.394531,2.73047 v 6.42969 c 5.539063,0.0312 6.492188,-2.76953 13.394531,-2.76953 1.210938,0 2.238282,0.0898 3.140626,0.23046"
       id="path22" />
    <path
       style="fill:#0c1430;fill-opacity:1;fill-rule:nonzero;stroke:none"
       d="m 87.625,109.14844 c 2.238281,-0.28125 3.683594,-1.07031 5.566406,-1.71875 l 0.921875,-6.69141 c -2.886719,0.81641 -4.523437,2.10938 -8.339843,2.08594 -0.742188,0.004 -1.402344,-0.043 -2.007813,-0.125 l 3.859375,6.44922"
       id="path24" />
  </g>
</svg>
