<?xml version="1.0" encoding="UTF-8" standalone="no"?>
<svg
   xmlns:dc="http://purl.org/dc/elements/1.1/"
   xmlns:cc="http://creativecommons.org/ns#"
   xmlns:rdf="http://www.w3.org/1999/02/22-rdf-syntax-ns#"
   xmlns:svg="http://www.w3.org/2000/svg"
   xmlns="http://www.w3.org/2000/svg"
   xmlns:sodipodi="http://sodipodi.sourceforge.net/DTD/sodipodi-0.dtd"
   xmlns:inkscape="http://www.inkscape.org/namespaces/inkscape"
   width="322.24219pt"
   height="67.5pt"
   viewBox="0 0 322.2422 67.5"
   version="1.2"
   id="svg87"
   sodipodi:docname="ubc-narrowsig.svg"
   inkscape:version="1.0.1 (3bc2e813f5, 2020-09-07)">
  <metadata
     id="metadata93">
    <rdf:RDF>
      <cc:Work
         rdf:about="">
        <dc:format>image/svg+xml</dc:format>
        <dc:type
           rdf:resource="http://purl.org/dc/dcmitype/StillImage" />
        <dc:title></dc:title>
      </cc:Work>
    </rdf:RDF>
  </metadata>
  <defs
     id="defs91" />
  <sodipodi:namedview
     pagecolor="#ffffff"
     bordercolor="#666666"
     borderopacity="1"
     objecttolerance="10"
     gridtolerance="10"
     guidetolerance="10"
     inkscape:pageopacity="0"
     inkscape:pageshadow="2"
     inkscape:window-width="712"
     inkscape:window-height="480"
     id="namedview89"
     showgrid="false"
     inkscape:zoom="0.69512721"
     inkscape:cx="212.20682"
     inkscape:cy="40.351142"
     inkscape:window-x="0"
     inkscape:window-y="27"
     inkscape:window-maximized="0"
     inkscape:current-layer="svg87" />
  <g
     id="surface4489"
     transform="translate(-24.753906,-24.75)">
    <path
       style="fill:#0c1430;fill-opacity:1;fill-rule:nonzero;stroke:none"
       d="m 49.503906,49.816406 2.640625,19.144532 8.671875,-14.492188 -3.679687,15.941406 9.347656,-8.945312 -4.867187,11.808594 7.777343,-5.804688 C 65.773438,77.320312 62.621094,82.847656 49.503906,87.335938 36.386719,82.847656 33.230469,77.320312 29.609375,67.46875 l 7.78125,5.804688 -4.867187,-11.808594 9.347656,8.945312 -3.679688,-15.941406 8.671875,14.492188 2.640625,-19.144532"
       id="path2" />
    <path
       style="fill:#0c1430;fill-opacity:1;fill-rule:nonzero;stroke:none"
       d="m 35.765625,43.402344 c -3.976563,0 -6.347656,-2.125 -6.347656,-5.699219 v -8.554687 h 3.292969 v 8.417968 c 0,2.078125 1.089843,3.21875 3.078124,3.21875 2.039063,0 3.117188,-1.09375 3.117188,-3.15625 v -8.480468 h 3.316406 v 8.496093 c 0,3.554688 -2.476562,5.757813 -6.457031,5.757813"
       id="path4" />
    <path
       style="fill:#0c1430;fill-opacity:1;fill-rule:nonzero;stroke:none"
       d="M 49.628906,43.164062 H 45.027344 V 29.148438 h 4.667968 c 3.414063,0 5.292969,1.324218 5.292969,3.722656 0,1.261718 -0.65625,2.234375 -1.910156,2.828125 1.683594,0.59375 2.535156,1.707031 2.535156,3.3125 0,2.679687 -2.125,4.152343 -5.984375,4.152343 m -1.417968,-2.339843 h 1.417968 c 1.28125,0 2.800782,-0.328125 2.800782,-1.890625 0,-1.609375 -1.546876,-1.953125 -2.847657,-1.953125 h -1.371093 z m 0,-6.042969 h 1.195312 c 1.605469,0 2.492188,-0.601562 2.492188,-1.691406 0,-1.074219 -0.773438,-1.597656 -2.363282,-1.597656 h -1.324218 v 3.289062"
       id="path6" />
    <path
       style="fill:#0c1430;fill-opacity:1;fill-rule:nonzero;stroke:none"
       d="m 64.84375,43.402344 c -4.539062,0 -7.464844,-2.832032 -7.464844,-7.226563 0,-4.339843 3.035156,-7.261719 7.554688,-7.261719 1.675781,0 3.085937,0.332032 4.308594,1.011719 l 0.109374,0.05859 -0.492187,2.855469 -0.214844,-0.144532 c -1.203125,-0.808593 -2.351562,-1.183593 -3.601562,-1.183593 -2.695313,0 -4.304688,1.738281 -4.304688,4.648437 0,2.851563 1.667969,4.625 4.351563,4.625 1.269531,0 2.523437,-0.382812 3.824218,-1.164062 l 0.21875,-0.128906 0.460938,2.660156 -0.101562,0.0625 c -1.335938,0.765625 -2.988282,1.1875 -4.648438,1.1875"
       id="path8" />
    <path
       style="fill:#0c1430;fill-opacity:1;fill-rule:nonzero;stroke:none"
       d="m 49.503906,90.304688 c -15.484375,-4.386719 -22.875,-14.609376 -22.875,-29.183594 V 26.625 h 45.75 v 34.496094 c 0,14.574218 -7.390625,24.796875 -22.875,29.183594 z M 24.753906,24.75 v 36.605469 c 0,15.386719 8.371094,26.527343 24.75,30.894531 16.378906,-4.367188 24.75,-15.507812 24.75,-30.894531 V 24.75 h -49.5"
       id="path10" />
    <path
       style="fill:#0c1430;fill-opacity:1;fill-rule:nonzero;stroke:none"
       d="m 49.503906,48.128906 c 3.453125,0 3.917969,1.402344 6.699219,1.382813 2.769531,0.01953 3.242187,-1.382813 6.695313,-1.382813 3.449218,0 3.925781,1.402344 6.695312,1.382813 v -3.210938 c -2.769531,0.01563 -3.246094,-1.367187 -6.695312,-1.367187 -3.453126,0 -3.925782,1.382812 -6.695313,1.367187 -2.78125,0.01563 -3.246094,-1.367187 -6.699219,-1.367187 -3.449218,0 -3.917968,1.382812 -6.695312,1.367187 -2.769532,0.01563 -3.246094,-1.367187 -6.695313,-1.367187 -3.453125,0 -3.929687,1.382812 -6.699219,1.367187 v 3.210938 c 2.769532,0.01953 3.246094,-1.382813 6.699219,-1.382813 3.449219,0 3.925781,1.402344 6.695313,1.382813 2.777344,0.01953 3.246094,-1.382813 6.695312,-1.382813"
       id="path12" />
    <path
       style="fill:#0c1430;fill-opacity:1;fill-rule:nonzero;stroke:none"
       d="m 51.691406,53.9375 c 1.664063,0.398438 2.457032,1.160156 4.511719,1.148438 2.769531,0.01562 3.242187,-1.382813 6.695313,-1.382813 3.449218,0 3.925781,1.398437 6.695312,1.382813 v -3.214844 c -2.769531,0.01953 -3.246094,-1.363282 -6.695312,-1.363282 -3.453126,0 -3.925782,1.382813 -6.695313,1.363282 -2.234375,0.01563 -2.976563,-0.875 -4.964844,-1.222656 l 0.453125,3.289062"
       id="path14" />
    <path
       style="fill:#0c1430;fill-opacity:1;fill-rule:nonzero;stroke:none"
       d="m 42.808594,55.085938 c 2.050781,0.01172 2.84375,-0.75 4.507812,-1.148438 l 0.453125,-3.289062 c -1.988281,0.347656 -2.730469,1.238281 -4.960937,1.222656 -2.769532,0.01953 -3.246094,-1.363282 -6.695313,-1.363282 -3.453125,0 -3.929687,1.382813 -6.699219,1.363282 v 3.214844 c 2.769532,0.01562 3.246094,-1.382813 6.699219,-1.382813 3.449219,0 3.925781,1.398437 6.695313,1.382813"
       id="path16" />
    <path
       style="fill:#0c1430;fill-opacity:1;fill-rule:nonzero;stroke:none"
       d="m 52.492188,59.742188 c 0.941406,0.324218 1.664062,0.71875 2.78125,0.859374 l 1.929687,-3.222656 c -0.300781,0.04297 -0.628906,0.06641 -1,0.0625 -1.910156,0.01172 -2.730469,-0.636718 -4.171875,-1.042968 l 0.460938,3.34375"
       id="path18" />
    <path
       style="fill:#0c1430;fill-opacity:1;fill-rule:nonzero;stroke:none"
       d="m 61.328125,59.386719 c 0.449219,-0.07031 0.960937,-0.113281 1.570313,-0.113281 3.449218,0 3.925781,1.398437 6.695312,1.382812 v -3.214844 c -2.769531,0.01953 -3.246094,-1.363281 -6.695312,-1.363281 -0.292969,0 -0.5625,0.01172 -0.8125,0.02734 l -0.757813,3.28125"
       id="path20" />
    <path
       style="fill:#0c1430;fill-opacity:1;fill-rule:nonzero;stroke:none"
       d="m 37.679688,59.386719 -0.757813,-3.28125 c -0.25,-0.01563 -0.519531,-0.02734 -0.808594,-0.02734 -3.453125,0 -3.929687,1.382813 -6.699219,1.363281 v 3.214844 c 2.769532,0.01563 3.246094,-1.382812 6.699219,-1.382812 0.605469,0 1.117188,0.04297 1.566407,0.113281"
       id="path22" />
    <path
       style="fill:#0c1430;fill-opacity:1;fill-rule:nonzero;stroke:none"
       d="m 43.734375,60.601562 c 1.117187,-0.136718 1.839844,-0.535156 2.78125,-0.859374 l 0.460937,-3.34375 c -1.441406,0.40625 -2.261718,1.054687 -4.167968,1.042968 -0.375,0.0039 -0.703125,-0.01953 -1.003906,-0.0625 l 1.929687,3.222656"
       id="path24" />
    <path
       style="fill:#0c1430;fill-opacity:1;fill-rule:nonzero;stroke:none"
       d="m 104.1875,43.164062 h -2.42187 V 32.949219 h -3.804692 v -2.15625 h 9.890622 l 0.32422,2.15625 h -3.98828 v 10.214843"
       id="path26" />
    <path
       style="fill:#0c1430;fill-opacity:1;fill-rule:nonzero;stroke:none"
       d="m 122.90625,43.164062 h -2.42187 v -5.332031 h -5.32813 v 5.332031 h -2.39844 V 30.792969 h 2.39844 V 35.625 h 5.32813 v -4.832031 h 2.42187 v 12.371093"
       id="path28" />
    <path
       style="fill:#0c1430;fill-opacity:1;fill-rule:nonzero;stroke:none"
       d="m 137.76953,43.164062 h -7.95312 V 30.792969 h 7.78515 v 2.136719 h -5.38672 v 2.738281 h 4.28907 l 0.35156,2.136719 h -4.64063 v 3.222656 h 5.55469 v 2.136718"
       id="path30" />
    <path
       style="fill:#0c1430;fill-opacity:1;fill-rule:nonzero;stroke:none"
       d="m 156.41797,43.402344 c -3.16016,0 -5.05078,-1.894532 -5.05078,-5.074219 v -7.535156 h 2.39843 v 7.4375 c 0,1.988281 0.94922,3.085937 2.67579,3.085937 1.76562,0 2.69921,-1.046875 2.69921,-3.035156 v -7.488281 h 2.42188 v 7.4375 c 0,3.242187 -1.92578,5.171875 -5.14453,5.171875"
       id="path32" />
    <path
       style="fill:#0c1430;fill-opacity:1;fill-rule:nonzero;stroke:none"
       d="m 178.26172,43.164062 h -2.07813 l -5.88672,-8.671874 v 8.671874 h -2.20703 V 30.792969 h 2.34375 l 5.6211,8.304687 v -8.304687 h 2.20703 v 12.371093"
       id="path34" />
    <path
       style="fill:#0c1430;fill-opacity:1;fill-rule:nonzero;stroke:none"
       d="m 187.5625,43.164062 h -2.42188 V 30.792969 h 2.42188 v 12.371093"
       id="path36" />
    <path
       style="fill:#0c1430;fill-opacity:1;fill-rule:nonzero;stroke:none"
       d="m 199.28516,43.355469 h -2.17579 l -4.77343,-12.265625 2.42578,-0.53125 3.53125,9.660156 3.45703,-9.425781 h 2.44141 l -4.90625,12.5625"
       id="path38" />
    <path
       style="fill:#0c1430;fill-opacity:1;fill-rule:nonzero;stroke:none"
       d="m 216.70703,43.164062 h -7.95312 V 30.792969 h 7.78515 v 2.136719 h -5.38281 v 2.738281 h 4.28516 l 0.35546,2.136719 h -4.64062 v 3.222656 h 5.55078 v 2.136718"
       id="path40" />
    <path
       style="fill:#0c1430;fill-opacity:1;fill-rule:nonzero;stroke:none"
       d="m 225.18359,36.554688 h 1.46094 c 1.49219,0 2.31641,-0.664063 2.31641,-1.886719 0,-1.460938 -1.26172,-1.765625 -2.31641,-1.765625 h -1.46094 z m 4.66016,6.769531 -3.52734,-4.847657 h -1.13282 v 4.6875 h -2.40234 V 30.792969 h 3.88281 c 2.94141,0 4.69531,1.4375 4.69531,3.855469 0,1.6875 -0.85156,2.890624 -2.46093,3.5 l 3.43359,4.613281 -2.48828,0.5625"
       id="path42" />
    <path
       style="fill:#0c1430;fill-opacity:1;fill-rule:nonzero;stroke:none"
       d="m 241.14453,43.328125 c -1.30859,0 -2.80859,-0.320313 -4.20312,-0.914063 l -0.0937,-0.03906 0.35546,-2.203125 0.14844,0.07813 c 1.23828,0.648438 2.76563,1.066406 3.89063,1.066406 1.36328,0 2.24609,-0.601562 2.24609,-1.527344 0,-0.921874 -0.57812,-1.277343 -2.30859,-1.871093 -2.59766,-0.90625 -3.91016,-1.722657 -3.91016,-3.683594 0,-2.125 1.71875,-3.613281 4.18359,-3.613281 1.25391,0 2.52344,0.261718 3.56641,0.730468 l 0.0859,0.03906 -0.34766,2.246094 -0.15234,-0.07813 c -1.15625,-0.601563 -2.21094,-0.894532 -3.21875,-0.894532 -1.07813,0 -1.89063,0.5625 -1.89063,1.308594 0,0.828125 0.5625,1.140625 2.47657,1.800782 2.42968,0.847656 3.74609,1.695312 3.74609,3.753906 0,2.269531 -1.83594,3.800781 -4.57422,3.800781"
       id="path44" />
    <path
       style="fill:#0c1430;fill-opacity:1;fill-rule:nonzero;stroke:none"
       d="m 254.13281,43.164062 h -2.42578 V 30.792969 h 2.42578 v 12.371093"
       id="path46" />
    <path
       style="fill:#0c1430;fill-opacity:1;fill-rule:nonzero;stroke:none"
       d="m 265.02734,43.164062 h -2.41797 V 32.949219 h -3.80078 v -2.15625 h 9.88672 l 0.32422,2.15625 h -3.99219 v 10.214843"
       id="path48" />
    <path
       style="fill:#0c1430;fill-opacity:1;fill-rule:nonzero;stroke:none"
       d="m 277.97266,43.164062 h -2.42188 v -4.777343 l -4.42969,-7.296875 2.46094,-0.527344 3.21094,5.628906 3.11328,-5.398437 h 2.65625 l -4.58984,7.570312 v 4.800781"
       id="path50" />
    <path
       style="fill:#0c1430;fill-opacity:1;fill-rule:nonzero;stroke:none"
       d="m 103.92188,57.390625 c -2.10157,0 -3.51954,1.738281 -3.51954,4.324219 0,2.535156 1.48047,4.375 3.51954,4.375 2.08593,0 3.48828,-1.75 3.48828,-4.347656 0,-2.519532 -1.46875,-4.351563 -3.48828,-4.351563 z m 0,10.761719 c -2.96875,0 -5.960942,-2.203125 -5.960942,-6.410156 0,-4.226563 2.992192,-6.4375 5.960942,-6.4375 2.94921,0 5.92968,2.199218 5.92968,6.410156 0,4.226562 -2.98047,6.4375 -5.92968,6.4375"
       id="path52" />
    <path
       style="fill:#0c1430;fill-opacity:1;fill-rule:nonzero;stroke:none"
       d="m 117.81641,67.914062 h -2.39453 V 55.542969 h 7.58984 v 2.136719 h -5.19531 v 2.929687 h 4.07422 l 0.35156,2.136719 h -4.42578 v 5.167968"
       id="path54" />
    <path
       style="fill:#0c1430;fill-opacity:1;fill-rule:nonzero;stroke:none"
       d="m 138.41016,60.46875 h 1.57812 c 1.37891,0 2.07422,-0.511719 2.07422,-1.527344 0,-0.582031 -0.21094,-1.359375 -2.00391,-1.359375 h -1.64843 z m 0,5.429688 h 1.78906 c 1.60937,0 2.39062,-0.546876 2.39062,-1.671876 0,-1.1875 -0.79297,-1.792968 -2.36328,-1.792968 h -1.8164 z m 1.76953,2.015624 h -4.07422 V 55.542969 h 4.04687 c 2.60938,0 4.16016,1.199219 4.16016,3.207031 0,1.183594 -0.51172,2.0625 -1.53906,2.609375 1.39062,0.503906 2.09765,1.46875 2.09765,2.867187 0,2.375 -1.67187,3.6875 -4.6914,3.6875"
       id="path56" />
    <path
       style="fill:#0c1430;fill-opacity:1;fill-rule:nonzero;stroke:none"
       d="m 153.125,61.304688 h 1.45312 c 1.49219,0 2.31641,-0.664063 2.31641,-1.886719 0,-1.460938 -1.25781,-1.765625 -2.31641,-1.765625 H 153.125 Z m 4.64844,6.769531 -3.52344,-4.847657 h -1.125 v 4.6875 h -2.40234 V 55.542969 h 3.8789 c 2.94141,0 4.69141,1.4375 4.69141,3.855469 0,1.6875 -0.85156,2.890624 -2.45703,3.5 l 3.42968,4.613281 -2.49218,0.5625"
       id="path58" />
    <path
       style="fill:#0c1430;fill-opacity:1;fill-rule:nonzero;stroke:none"
       d="M 167.99219,67.914062 H 165.5625 V 55.542969 h 2.42969 v 12.371093"
       id="path60" />
    <path
       style="fill:#0c1430;fill-opacity:1;fill-rule:nonzero;stroke:none"
       d="m 178.90625,67.914062 h -2.41797 V 57.699219 h -3.80469 v -2.15625 h 9.89063 l 0.32031,2.15625 h -3.98828 v 10.214843"
       id="path62" />
    <path
       style="fill:#0c1430;fill-opacity:1;fill-rule:nonzero;stroke:none"
       d="m 189.74609,67.914062 h -2.42187 V 55.542969 h 2.42187 v 12.371093"
       id="path64" />
    <path
       style="fill:#0c1430;fill-opacity:1;fill-rule:nonzero;stroke:none"
       d="m 199.73828,68.078125 c -1.3125,0 -2.80859,-0.320313 -4.20703,-0.914063 L 195.44141,67.125 195.79297,64.921875 195.94141,65 c 1.24609,0.648438 2.77343,1.066406 3.89453,1.066406 1.35937,0 2.24218,-0.601562 2.24218,-1.527344 0,-0.921874 -0.57421,-1.277343 -2.30859,-1.871093 -2.58984,-0.90625 -3.91406,-1.722657 -3.91406,-3.683594 0,-2.125 1.73047,-3.613281 4.19922,-3.613281 1.24609,0 2.51172,0.261718 3.55859,0.730468 l 0.0859,0.03906 -0.34766,2.246094 -0.15234,-0.07813 c -1.15235,-0.601563 -2.21094,-0.894532 -3.22266,-0.894532 -1.07422,0 -1.88672,0.5625 -1.88672,1.308594 0,0.828125 0.5586,1.140625 2.47657,1.800782 2.42578,0.847656 3.74218,1.695312 3.74218,3.753906 0,2.269531 -1.83593,3.800781 -4.57031,3.800781"
       id="path66" />
    <path
       style="fill:#0c1430;fill-opacity:1;fill-rule:nonzero;stroke:none"
       d="m 219.73047,67.914062 h -2.42578 v -5.332031 h -5.32422 v 5.332031 h -2.39844 V 55.542969 h 2.39844 V 60.375 h 5.32422 v -4.832031 h 2.42578 v 12.371093"
       id="path68" />
    <path
       style="fill:#0c1430;fill-opacity:1;fill-rule:nonzero;stroke:none"
       d="m 238.3125,68.152344 c -3.56641,0 -5.96094,-2.566406 -5.96094,-6.390625 0,-3.859375 2.39453,-6.457031 5.96094,-6.457031 1.41016,0 2.54687,0.300781 3.55859,0.949218 l 0.0664,0.04687 -0.37891,2.261719 -0.16406,-0.121094 c -0.98047,-0.734375 -1.92969,-1.078125 -3.00781,-1.078125 -2.23047,0 -3.5625,1.644531 -3.5625,4.378907 0,2.695312 1.375,4.371093 3.60937,4.371093 1.06641,0 2.17578,-0.382812 3.20313,-1.101562 l 0.16015,-0.113281 0.33204,2.117187 -0.0664,0.03906 c -1.07422,0.707031 -2.40234,1.097656 -3.75,1.097656"
       id="path70" />
    <path
       style="fill:#0c1430;fill-opacity:1;fill-rule:nonzero;stroke:none"
       d="m 252.53516,57.390625 c -2.10547,0 -3.51563,1.738281 -3.51563,4.324219 0,2.535156 1.47656,4.375 3.51563,4.375 2.08203,0 3.48437,-1.75 3.48437,-4.347656 0,-2.519532 -1.46484,-4.351563 -3.48437,-4.351563 z m 0,10.761719 c -2.96875,0 -5.96094,-2.203125 -5.96094,-6.410156 0,-4.226563 2.99219,-6.4375 5.96094,-6.4375 2.94531,0 5.92968,2.199218 5.92968,6.410156 0,4.226562 -2.98437,6.4375 -5.92968,6.4375"
       id="path72" />
    <path
       style="fill:#0c1430;fill-opacity:1;fill-rule:nonzero;stroke:none"
       d="m 271.08594,67.914062 h -7.32032 V 55.542969 h 2.39844 v 10.257812 h 4.57813 l 0.34375,2.113281"
       id="path74" />
    <path
       style="fill:#0c1430;fill-opacity:1;fill-rule:nonzero;stroke:none"
       d="m 280.39844,68.152344 c -3.16016,0 -5.04688,-1.894532 -5.04688,-5.074219 V 55.542969 H 277.75 v 7.4375 c 0,1.988281 0.94531,3.085937 2.67578,3.085937 1.76172,0 2.69141,-1.046875 2.69141,-3.035156 v -7.488281 h 2.42968 v 7.4375 c 0,3.242187 -1.92578,5.171875 -5.14843,5.171875"
       id="path76" />
    <path
       style="fill:#0c1430;fill-opacity:1;fill-rule:nonzero;stroke:none"
       d="m 299.90625,67.960938 h -2.32031 l -3.30078,-9.382813 -0.6875,9.335937 h -2.20313 l 0.97266,-12.371093 h 3.26562 l 3.23828,9.476562 3.28125,-9.476562 h 3.19141 l 0.97656,12.371093 h -2.39844 l -0.70703,-9.335937 -3.30859,9.382813"
       id="path78" />
    <path
       style="fill:#0c1430;fill-opacity:1;fill-rule:nonzero;stroke:none"
       d="m 315.10547,60.46875 h 1.57422 c 1.375,0 2.07422,-0.511719 2.07422,-1.527344 0,-0.582031 -0.20313,-1.359375 -2.00391,-1.359375 h -1.64453 z m 0,5.429688 h 1.78515 c 1.60938,0 2.39063,-0.546876 2.39063,-1.671876 0,-1.1875 -0.79688,-1.792968 -2.36719,-1.792968 h -1.80859 z m 1.76172,2.015624 h -4.06641 V 55.542969 h 4.04297 c 2.61328,0 4.17187,1.199219 4.17187,3.207031 0,1.183594 -0.52343,2.0625 -1.54687,2.609375 1.38672,0.503906 2.09375,1.46875 2.09375,2.867187 0,2.375 -1.66406,3.6875 -4.69531,3.6875"
       id="path80" />
    <path
       style="fill:#0c1430;fill-opacity:1;fill-rule:nonzero;stroke:none"
       d="m 330.05859,67.914062 h -2.42578 V 55.542969 h 2.42578 v 12.371093"
       id="path82" />
    <path
       style="fill:#0c1430;fill-opacity:1;fill-rule:nonzero;stroke:none"
       d="m 339.01953,62.738281 h 3.59375 c -0.21875,-0.628906 -1.12109,-3.058593 -1.78516,-4.847656 z m 5.60156,5.410157 -1.19922,-3.269532 h -5.1875 l -1.125,3.035156 h -2.37109 l 4.87891,-12.515624 h 2.5664 l 4.8125,12.214843 -2.375,0.535157"
       id="path84" />
  </g>
</svg>
